<?xml version="1.0" encoding="UTF-8"?>
<!DOCTYPE svg PUBLIC "-//W3C//DTD SVG 1.1//EN" "http://www.w3.org/Graphics/SVG/1.1/DTD/svg11.dtd">
<svg xmlns="http://www.w3.org/2000/svg" version="1.1" width="40px" height="40px" style="shape-rendering:geometricPrecision; text-rendering:geometricPrecision; image-rendering:optimizeQuality; fill-rule:evenodd; clip-rule:evenodd" xmlns:xlink="http://www.w3.org/1999/xlink">
<g><path style="opacity:1" fill="#fefefe" d="M -0.5,-0.5 C 12.8333,-0.5 26.1667,-0.5 39.5,-0.5C 39.5,12.8333 39.5,26.1667 39.5,39.5C 26.1667,39.5 12.8333,39.5 -0.5,39.5C -0.5,26.1667 -0.5,12.8333 -0.5,-0.5 Z"/></g>
<g><path style="opacity:1" fill="#c5c7c7" d="M 17.5,9.5 C 17.5,9.16667 17.5,8.83333 17.5,8.5C 22.1785,8.33418 26.8452,8.50085 31.5,9C 32.3366,10.0113 32.67,11.1779 32.5,12.5C 31.5,12.5 30.5,12.5 29.5,12.5C 29.1667,8.5 28.8333,8.5 28.5,12.5C 27.5,12.5 26.5,12.5 25.5,12.5C 25.1667,8.5 24.8333,8.5 24.5,12.5C 23.1411,11.9935 22.1411,10.9935 21.5,9.5C 20.8333,10.5 20.1667,11.5 19.5,12.5C 18.8243,11.3984 18.1577,10.3984 17.5,9.5 Z"/></g>
<g><path style="opacity:1" fill="#e9a58a" d="M 13.5,9.5 C 13.5,9.16667 13.5,8.83333 13.5,8.5C 14.8333,8.5 16.1667,8.5 17.5,8.5C 17.5,8.83333 17.5,9.16667 17.5,9.5C 17.5,10.5 17.5,11.5 17.5,12.5C 16.5,12.5 15.5,12.5 14.5,12.5C 14.7373,11.209 14.404,10.209 13.5,9.5 Z"/></g>
<g><path style="opacity:1" fill="#b7babe" d="M 13.5,8.5 C 13.5,8.83333 13.5,9.16667 13.5,9.5C 11.54,10.1383 9.70666,10.1383 8,9.5C 7.51722,10.448 7.35055,11.448 7.5,12.5C 8.83333,12.5 10.1667,12.5 11.5,12.5C 11.634,14.2915 11.3007,15.9582 10.5,17.5C 9.44802,17.3505 8.44802,17.5172 7.5,18C 8.42308,20.0408 8.75642,22.2075 8.5,24.5C 8.16667,24.5 7.83333,24.5 7.5,24.5C 6.90935,23.8485 6.24269,23.1818 5.5,22.5C 4.53871,17.7238 4.53871,13.0571 5.5,8.5C 7.8857,8.32409 10.5524,8.32409 13.5,8.5 Z"/></g>
<g><path style="opacity:1" fill="#635b4b" d="M 13.5,9.5 C 14.404,10.209 14.7373,11.209 14.5,12.5C 15.5,12.5 16.5,12.5 17.5,12.5C 17.5,11.5 17.5,10.5 17.5,9.5C 18.1577,10.3984 18.8243,11.3984 19.5,12.5C 20.1667,11.5 20.8333,10.5 21.5,9.5C 22.1411,10.9935 23.1411,11.9935 24.5,12.5C 24.1667,13.1667 23.8333,13.8333 23.5,14.5C 19.1617,14.6219 18.8284,14.9553 22.5,15.5C 22.6582,18.5455 21.9915,21.3788 20.5,24C 21.0659,24.9947 21.7326,25.828 22.5,26.5C 22.719,27.675 22.3857,28.675 21.5,29.5C 20.8243,28.3984 20.1577,27.3984 19.5,26.5C 18.8921,25.2003 18.2255,23.8669 17.5,22.5C 18.5791,20.7473 18.5791,19.0806 17.5,17.5C 18.782,16.2918 18.782,14.9584 17.5,13.5C 16.6143,14.325 16.281,15.325 16.5,16.5C 14.5,16.8333 12.5,17.1667 10.5,17.5C 11.3007,15.9582 11.634,14.2915 11.5,12.5C 10.1667,12.5 8.83333,12.5 7.5,12.5C 7.35055,11.448 7.51722,10.448 8,9.5C 9.70666,10.1383 11.54,10.1383 13.5,9.5 Z"/></g>
<g><path style="opacity:1" fill="#abb9b0" d="M 17.5,17.5 C 16.8333,17.5 16.5,17.1667 16.5,16.5C 16.281,15.325 16.6143,14.325 17.5,13.5C 18.782,14.9584 18.782,16.2918 17.5,17.5 Z"/></g>
<g><path style="opacity:1" fill="#57503d" d="M 10.5,17.5 C 11.5893,19.1171 13.256,19.9504 15.5,20C 14.8333,20.3333 14.1667,20.6667 13.5,21C 15.1193,21.2355 16.1193,22.0689 16.5,23.5C 14.901,23.2322 13.5676,23.5655 12.5,24.5C 11.0357,23.5946 9.70236,23.5946 8.5,24.5C 8.75642,22.2075 8.42308,20.0408 7.5,18C 8.44802,17.5172 9.44802,17.3505 10.5,17.5 Z"/></g>
<g><path style="opacity:1" fill="#34332a" d="M 32.5,12.5 C 33.7567,17.9638 33.7567,23.2971 32.5,28.5C 32.1788,26.9519 31.1788,26.2852 29.5,26.5C 29.1667,30.5 28.8333,30.5 28.5,26.5C 27.5,26.5 26.5,26.5 25.5,26.5C 25.6495,27.552 25.4828,28.552 25,29.5C 24.7645,27.8807 23.9311,26.8807 22.5,26.5C 21.7326,25.828 21.0659,24.9947 20.5,24C 21.9915,21.3788 22.6582,18.5455 22.5,15.5C 18.8284,14.9553 19.1617,14.6219 23.5,14.5C 23.8333,13.8333 24.1667,13.1667 24.5,12.5C 24.8333,8.5 25.1667,8.5 25.5,12.5C 26.5,12.5 27.5,12.5 28.5,12.5C 28.8333,8.5 29.1667,8.5 29.5,12.5C 30.5,12.5 31.5,12.5 32.5,12.5 Z"/></g>
<g><path style="opacity:1" fill="#e3e4e5" d="M 27.5,20.5 C 28.5862,20.62 29.2528,21.2867 29.5,22.5C 29.1667,23.1667 28.8333,23.8333 28.5,24.5C 27.5713,23.3112 27.238,21.9778 27.5,20.5 Z"/></g>
<g><path style="opacity:1" fill="#cdccca" d="M 23.5,20.5 C 24.5,20.5 25.5,20.5 26.5,20.5C 26.5,21.8333 26.5,23.1667 26.5,24.5C 25.5,24.5 24.5,24.5 23.5,24.5C 23.5,23.1667 23.5,21.8333 23.5,20.5 Z"/></g>
<g><path style="opacity:1" fill="#f1f2f2" d="M 27.5,14.5 C 28.5862,14.62 29.2528,15.2867 29.5,16.5C 29.1667,17.1667 28.8333,17.8333 28.5,18.5C 27.5713,17.3112 27.238,15.9778 27.5,14.5 Z"/></g>
<g><path style="opacity:1" fill="#dbdbda" d="M 23.5,14.5 C 24.5,14.5 25.5,14.5 26.5,14.5C 26.5,15.8333 26.5,17.1667 26.5,18.5C 25.5,18.5 24.5,18.5 23.5,18.5C 23.5,17.1667 23.5,15.8333 23.5,14.5 Z"/></g>
<g><path style="opacity:1" fill="#242118" d="M 16.5,16.5 C 16.5,17.1667 16.8333,17.5 17.5,17.5C 18.5791,19.0806 18.5791,20.7473 17.5,22.5C 18.2255,23.8669 18.8921,25.2003 19.5,26.5C 18.8333,27.5 18.1667,28.5 17.5,29.5C 17.5,28.5 17.5,27.5 17.5,26.5C 16.1667,26.5 14.8333,26.5 13.5,26.5C 13.5,27.5 13.5,28.5 13.5,29.5C 11.5,29.5 9.5,29.5 7.5,29.5C 6.41383,29.38 5.74716,28.7133 5.5,27.5C 5.94242,26.2613 6.60908,25.2613 7.5,24.5C 7.83333,24.5 8.16667,24.5 8.5,24.5C 9.70236,23.5946 11.0357,23.5946 12.5,24.5C 12.9169,25.1239 13.5836,25.4573 14.5,25.5C 15.7133,25.2528 16.38,24.5862 16.5,23.5C 16.1193,22.0689 15.1193,21.2355 13.5,21C 14.1667,20.6667 14.8333,20.3333 15.5,20C 13.256,19.9504 11.5893,19.1171 10.5,17.5C 12.5,17.1667 14.5,16.8333 16.5,16.5 Z"/></g>
<g><path style="opacity:1" fill="#8b8b8a" d="M 16.5,23.5 C 16.38,24.5862 15.7133,25.2528 14.5,25.5C 13.5836,25.4573 12.9169,25.1239 12.5,24.5C 13.5676,23.5655 14.901,23.2322 16.5,23.5 Z"/></g>
<g><path style="opacity:1" fill="#c99c89" d="M 17.5,29.5 C 17.5,29.8333 17.5,30.1667 17.5,30.5C 13.9581,30.8128 10.6248,30.4794 7.5,29.5C 9.5,29.5 11.5,29.5 13.5,29.5C 13.5,28.5 13.5,27.5 13.5,26.5C 14.8333,26.5 16.1667,26.5 17.5,26.5C 17.5,27.5 17.5,28.5 17.5,29.5 Z"/></g>
<g><path style="opacity:1" fill="#c3c2c0" d="M 19.5,26.5 C 20.1577,27.3984 20.8243,28.3984 21.5,29.5C 22.3857,28.675 22.719,27.675 22.5,26.5C 23.9311,26.8807 24.7645,27.8807 25,29.5C 25.4828,28.552 25.6495,27.552 25.5,26.5C 26.5,26.5 27.5,26.5 28.5,26.5C 28.8333,30.5 29.1667,30.5 29.5,26.5C 31.1788,26.2852 32.1788,26.9519 32.5,28.5C 27.9443,30.4417 22.9443,31.1083 17.5,30.5C 17.5,30.1667 17.5,29.8333 17.5,29.5C 18.1667,28.5 18.8333,27.5 19.5,26.5 Z"/></g>
</svg>
