<?xml version="1.0" encoding="UTF-8"?>
<!DOCTYPE svg PUBLIC "-//W3C//DTD SVG 1.1//EN" "http://www.w3.org/Graphics/SVG/1.1/DTD/svg11.dtd">
<svg xmlns="http://www.w3.org/2000/svg" version="1.1" width="40px" height="40px" style="shape-rendering:geometricPrecision; text-rendering:geometricPrecision; image-rendering:optimizeQuality; fill-rule:evenodd; clip-rule:evenodd" xmlns:xlink="http://www.w3.org/1999/xlink">
<g><path style="opacity:1" fill="#fdfdfc" d="M -0.5,-0.5 C 12.8333,-0.5 26.1667,-0.5 39.5,-0.5C 39.5,12.8333 39.5,26.1667 39.5,39.5C 26.1667,39.5 12.8333,39.5 -0.5,39.5C -0.5,26.1667 -0.5,12.8333 -0.5,-0.5 Z"/></g>
<g><path style="opacity:1" fill="#88573c" d="M 33.5,8.5 C 28.7562,10.109 24.4229,9.44238 20.5,6.5C 25.0317,5.90002 29.365,6.56669 33.5,8.5 Z"/></g>
<g><path style="opacity:1" fill="#1b1a1c" d="M 20.5,6.5 C 24.4229,9.44238 28.7562,10.109 33.5,8.5C 34.404,9.20895 34.7373,10.209 34.5,11.5C 32.742,11.8769 31.0754,12.5435 29.5,13.5C 25.9684,12.1969 22.4684,12.1969 19,13.5C 16.0883,11.7924 15.9216,10.1258 18.5,8.5C 19.1667,7.83333 19.8333,7.16667 20.5,6.5 Z"/></g>
<g><path style="opacity:1" fill="#7e694c" d="M 18.5,8.5 C 15.9216,10.1258 16.0883,11.7924 19,13.5C 22.4684,12.1969 25.9684,12.1969 29.5,13.5C 31.0754,12.5435 32.742,11.8769 34.5,11.5C 34.7523,16.3855 34.419,21.2188 33.5,26C 32.7935,28.54 31.1268,29.7067 28.5,29.5C 26.7871,24.5909 28.4537,21.5909 33.5,20.5C 33.7529,18.1727 33.0863,16.1727 31.5,14.5C 29.677,15.7472 27.677,16.4139 25.5,16.5C 25.1435,15.1301 24.3102,14.1301 23,13.5C 20.6136,14.8337 18.2803,16.167 16,17.5C 13.5943,15.9134 11.4276,14.2467 9.5,12.5C 11.2646,11.5386 13.2646,11.2053 15.5,11.5C 15.5,10.1667 15.5,8.83333 15.5,7.5C 16.791,7.26269 17.791,7.59603 18.5,8.5 Z"/></g>
<g><path style="opacity:1" fill="#d1cecd" d="M 9.5,12.5 C 11.4276,14.2467 13.5943,15.9134 16,17.5C 18.2803,16.167 20.6136,14.8337 23,13.5C 24.3102,14.1301 25.1435,15.1301 25.5,16.5C 26.8494,19.4602 25.8494,21.1269 22.5,21.5C 22.5257,24.9623 23.859,27.6289 26.5,29.5C 23.2278,30.2556 19.8944,30.9222 16.5,31.5C 14.1291,30.6531 12.1291,29.3198 10.5,27.5C 11.0906,26.8485 11.7573,26.1818 12.5,25.5C 12.1667,25.1667 11.8333,24.8333 11.5,24.5C 9.40243,24.9572 7.73576,25.9572 6.5,27.5C 4.8317,25.4869 2.8317,23.8203 0.5,22.5C 2.30435,21.2319 4.30435,20.5652 6.5,20.5C 6.43456,20.9382 6.60123,21.2716 7,21.5C 8.39881,20.7734 9.89881,20.2734 11.5,20C 10.4293,19.1482 9.42925,18.3149 8.5,17.5C 7.84661,16.1932 7.17994,14.8599 6.5,13.5C 7.39374,13.4827 8.39374,13.1494 9.5,12.5 Z"/></g>
<g><path style="opacity:1" fill="#322f2a" d="M 28.5,29.5 C 27.8333,29.5 27.1667,29.5 26.5,29.5C 23.859,27.6289 22.5257,24.9623 22.5,21.5C 25.8494,21.1269 26.8494,19.4602 25.5,16.5C 27.677,16.4139 29.677,15.7472 31.5,14.5C 33.0863,16.1727 33.7529,18.1727 33.5,20.5C 28.4537,21.5909 26.7871,24.5909 28.5,29.5 Z"/></g>
<g><path style="opacity:1" fill="#574d46" d="M 8.5,17.5 C 9.42925,18.3149 10.4293,19.1482 11.5,20C 9.89881,20.2734 8.39881,20.7734 7,21.5C 6.60123,21.2716 6.43456,20.9382 6.5,20.5C 6.28519,18.8212 6.95186,17.8212 8.5,17.5 Z"/></g>
<g><path style="opacity:1" fill="#73779e" d="M 10.5,27.5 C 9.16667,27.5 7.83333,27.5 6.5,27.5C 7.73576,25.9572 9.40243,24.9572 11.5,24.5C 11.8333,24.8333 12.1667,25.1667 12.5,25.5C 11.7573,26.1818 11.0906,26.8485 10.5,27.5 Z"/></g>
</svg>
