<?xml version="1.0" encoding="UTF-8"?>
<!DOCTYPE svg PUBLIC "-//W3C//DTD SVG 1.1//EN" "http://www.w3.org/Graphics/SVG/1.1/DTD/svg11.dtd">
<svg xmlns="http://www.w3.org/2000/svg" version="1.1" width="108px" height="47px" style="shape-rendering:geometricPrecision; text-rendering:geometricPrecision; image-rendering:optimizeQuality; fill-rule:evenodd; clip-rule:evenodd" xmlns:xlink="http://www.w3.org/1999/xlink">
<g><path style="opacity:0.655" fill="#9b8174" d="M 63.5,7.5 C 61.4352,7.51715 59.4352,7.85048 57.5,8.5C 55.857,8.48015 54.5237,9.14682 53.5,10.5C 52.8933,10.3764 52.56,10.0431 52.5,9.5C 55.684,5.424 59.3506,4.75733 63.5,7.5 Z"/></g>
<g><path style="opacity:1" fill="#996244" d="M 63.5,7.5 C 65.1172,8.038 66.7839,8.37133 68.5,8.5C 68.8333,9.16667 69.1667,9.83333 69.5,10.5C 67.5648,11.1495 65.5648,11.4828 63.5,11.5C 62.0813,10.5489 60.4147,10.2155 58.5,10.5C 58.1667,9.83333 57.8333,9.16667 57.5,8.5C 59.4352,7.85048 61.4352,7.51715 63.5,7.5 Z"/></g>
<g><path style="opacity:0.999" fill="#161515" d="M 52.5,9.5 C 52.56,10.0431 52.8933,10.3764 53.5,10.5C 54.5237,9.14682 55.857,8.48015 57.5,8.5C 57.8333,9.16667 58.1667,9.83333 58.5,10.5C 54.7334,11.8765 55.0667,12.8765 59.5,13.5C 59.5,13.8333 59.5,14.1667 59.5,14.5C 57.3037,14.59 55.137,14.9233 53,15.5C 51.3009,15.6134 50.1342,14.9468 49.5,13.5C 49.5,12.8333 49.5,12.1667 49.5,11.5C 49.6682,8.9486 50.6682,8.28194 52.5,9.5 Z"/></g>
<g><path style="opacity:1" fill="#100d0b" d="M 69.5,10.5 C 70.4345,11.5676 70.7678,12.901 70.5,14.5C 70.1667,14.5 69.8333,14.5 69.5,14.5C 67.8828,15.038 66.2161,15.3713 64.5,15.5C 64.0269,14.0937 63.0269,13.427 61.5,13.5C 61.5,12.1667 62.1667,11.5 63.5,11.5C 65.5648,11.4828 67.5648,11.1495 69.5,10.5 Z"/></g>
<g><path style="opacity:0.042" fill="#e4e2e1" d="M 49.5,11.5 C 49.5,12.1667 49.5,12.8333 49.5,13.5C 48.8333,13.5 48.1667,13.5 47.5,13.5C 46.1667,13.5 44.8333,13.5 43.5,13.5C 45.3736,12.7148 47.3736,12.0482 49.5,11.5 Z"/></g>
<g><path style="opacity:1" fill="#2c2628" d="M 58.5,10.5 C 60.4147,10.2155 62.0813,10.5489 63.5,11.5C 62.1667,11.5 61.5,12.1667 61.5,13.5C 60.8333,13.5 60.1667,13.5 59.5,13.5C 55.0667,12.8765 54.7334,11.8765 58.5,10.5 Z"/></g>
<g><path style="opacity:1" fill="#3e301e" d="M 59.5,13.5 C 60.1667,13.5 60.8333,13.5 61.5,13.5C 63.0269,13.427 64.0269,14.0937 64.5,15.5C 63.5178,16.1408 62.5178,16.8075 61.5,17.5C 60.8182,16.7573 60.1515,16.0906 59.5,15.5C 59.5,15.1667 59.5,14.8333 59.5,14.5C 59.5,14.1667 59.5,13.8333 59.5,13.5 Z"/></g>
<g><path style="opacity:1" fill="#826537" d="M 43.5,13.5 C 44.8333,13.5 46.1667,13.5 47.5,13.5C 44.8749,14.4405 44.8749,15.6072 47.5,17C 50.1572,17.1747 52.8239,17.0081 55.5,16.5C 53.6732,17.6912 52.0066,19.0245 50.5,20.5C 48.847,20.3404 47.5137,19.6737 46.5,18.5C 44.3609,17.8419 42.3609,16.8419 40.5,15.5C 40.9731,14.0937 41.9731,13.427 43.5,13.5 Z"/></g>
<g><path style="opacity:1" fill="#766756" d="M 47.5,13.5 C 48.1667,13.5 48.8333,13.5 49.5,13.5C 50.1342,14.9468 51.3009,15.6134 53,15.5C 55.137,14.9233 57.3037,14.59 59.5,14.5C 59.5,14.8333 59.5,15.1667 59.5,15.5C 58.209,15.2627 57.209,15.596 56.5,16.5C 56.1667,16.5 55.8333,16.5 55.5,16.5C 52.8239,17.0081 50.1572,17.1747 47.5,17C 44.8749,15.6072 44.8749,14.4405 47.5,13.5 Z"/></g>
<g><path style="opacity:0.253" fill="#c5c3c2" d="M 68.5,8.5 C 71.488,8.15465 72.8213,9.48799 72.5,12.5C 71.2942,17.1959 71.2942,21.8625 72.5,26.5C 72.0057,28.0255 71.339,29.3588 70.5,30.5C 70.5,27.1667 70.5,23.8333 70.5,20.5C 70.5,18.5 70.5,16.5 70.5,14.5C 70.7678,12.901 70.4345,11.5676 69.5,10.5C 69.1667,9.83333 68.8333,9.16667 68.5,8.5 Z"/></g>
<g><path style="opacity:1" fill="#b1aca0" d="M 69.5,14.5 C 69.2178,15.7777 68.5511,16.7777 67.5,17.5C 65.8297,17.7512 64.3297,18.4178 63,19.5C 62.586,19.0426 62.086,18.7093 61.5,18.5C 61.6216,19.8638 61.6216,21.1971 61.5,22.5C 60.8333,22.5 60.5,22.8333 60.5,23.5C 58.847,23.3404 57.5137,22.6737 56.5,21.5C 58.5449,20.0772 59.5449,18.0772 59.5,15.5C 60.1515,16.0906 60.8182,16.7573 61.5,17.5C 62.5178,16.8075 63.5178,16.1408 64.5,15.5C 66.2161,15.3713 67.8828,15.038 69.5,14.5 Z"/></g>
<g><path style="opacity:0.39" fill="#f1f0ef" d="M 40.5,15.5 C 39.6986,17.3527 39.3653,19.0194 39.5,20.5C 39.1667,20.5 38.8333,20.5 38.5,20.5C 37.8333,21.5 37.1667,22.5 36.5,23.5C 35.2647,21.2271 35.5981,19.3938 37.5,18C 36.8333,17.3333 36.1667,16.6667 35.5,16C 37.1341,15.5065 38.8008,15.3398 40.5,15.5 Z"/></g>
<g><path style="opacity:1" fill="#dfd8d1" d="M 46.5,18.5 C 47.5137,19.6737 48.847,20.3404 50.5,20.5C 51.6316,21.3543 52.965,21.3543 54.5,20.5C 54.5,20.8333 54.5,21.1667 54.5,21.5C 54.5,22.5 54.5,23.5 54.5,24.5C 54.1667,24.5 53.8333,24.5 53.5,24.5C 53.631,23.7611 53.4643,23.0944 53,22.5C 51.9887,23.3366 50.8221,23.67 49.5,23.5C 49.2172,22.7109 48.7172,22.0442 48,21.5C 46.6439,22.3802 45.1439,22.7135 43.5,22.5C 43.67,21.1779 43.3366,20.0113 42.5,19C 43.7932,18.51 45.1266,18.3433 46.5,18.5 Z"/></g>
<g><path style="opacity:0.651" fill="#a9a39d" d="M 55.5,16.5 C 55.8333,16.5 56.1667,16.5 56.5,16.5C 56.2671,18.0618 55.6005,19.3951 54.5,20.5C 52.965,21.3543 51.6316,21.3543 50.5,20.5C 52.0066,19.0245 53.6732,17.6912 55.5,16.5 Z"/></g>
<g><path style="opacity:1" fill="#513e2f" d="M 69.5,14.5 C 69.8333,14.5 70.1667,14.5 70.5,14.5C 70.5,16.5 70.5,18.5 70.5,20.5C 69.5084,20.3284 68.8417,20.6618 68.5,21.5C 67.8333,21.5 67.1667,21.5 66.5,21.5C 67.2341,20.2921 67.5674,18.9587 67.5,17.5C 68.5511,16.7777 69.2178,15.7777 69.5,14.5 Z"/></g>
<g><path style="opacity:0.261" fill="#e4e2e0" d="M 59.5,15.5 C 59.5449,18.0772 58.5449,20.0772 56.5,21.5C 55.8333,21.5 55.1667,21.5 54.5,21.5C 54.5,21.1667 54.5,20.8333 54.5,20.5C 55.6005,19.3951 56.2671,18.0618 56.5,16.5C 57.209,15.596 58.209,15.2627 59.5,15.5 Z"/></g>
<g><path style="opacity:1" fill="#b6b3af" d="M 40.5,15.5 C 42.3609,16.8419 44.3609,17.8419 46.5,18.5C 45.1266,18.3433 43.7932,18.51 42.5,19C 43.3366,20.0113 43.67,21.1779 43.5,22.5C 41.847,22.3404 40.5137,21.6737 39.5,20.5C 39.3653,19.0194 39.6986,17.3527 40.5,15.5 Z"/></g>
<g><path style="opacity:1" fill="#454543" d="M 67.5,17.5 C 67.5674,18.9587 67.2341,20.2921 66.5,21.5C 66.4654,22.4037 65.9654,23.0704 65,23.5C 63.8615,23.0109 62.6948,22.6775 61.5,22.5C 61.6216,21.1971 61.6216,19.8638 61.5,18.5C 62.086,18.7093 62.586,19.0426 63,19.5C 64.3297,18.4178 65.8297,17.7512 67.5,17.5 Z"/></g>
<g><path style="opacity:1" fill="#5f4f3d" d="M 70.5,20.5 C 70.5,23.8333 70.5,27.1667 70.5,30.5C 69.7326,29.828 69.0659,28.9947 68.5,28C 69.5171,26.9505 69.6838,25.7839 69,24.5C 67.9887,25.3366 66.8221,25.67 65.5,25.5C 65.5,25.1667 65.5,24.8333 65.5,24.5C 68.1951,24.4373 69.1951,23.4373 68.5,21.5C 68.8417,20.6618 69.5084,20.3284 70.5,20.5 Z"/></g>
<g><path style="opacity:1" fill="#2e2621" d="M 38.5,20.5 C 38.8333,20.5 39.1667,20.5 39.5,20.5C 40.5137,21.6737 41.847,22.3404 43.5,22.5C 43.5,23.1667 43.5,23.8333 43.5,24.5C 42.8333,24.5 42.1667,24.5 41.5,24.5C 41.44,23.9569 41.1067,23.6236 40.5,23.5C 39.8182,24.2427 39.1515,24.9094 38.5,25.5C 38.5,23.8333 38.5,22.1667 38.5,20.5 Z"/></g>
<g><path style="opacity:0.816" fill="#d7c9b8" d="M 49.5,23.5 C 49.1583,24.3382 48.4916,24.6716 47.5,24.5C 47.1667,24.5 46.8333,24.5 46.5,24.5C 45.5,24.5 44.5,24.5 43.5,24.5C 43.5,23.8333 43.5,23.1667 43.5,22.5C 45.1439,22.7135 46.6439,22.3802 48,21.5C 48.7172,22.0442 49.2172,22.7109 49.5,23.5 Z"/></g>
<g><path style="opacity:0.221" fill="#edeae6" d="M 54.5,21.5 C 55.1667,21.5 55.8333,21.5 56.5,21.5C 57.5137,22.6737 58.847,23.3404 60.5,23.5C 60.1667,24.1667 59.8333,24.8333 59.5,25.5C 58.5,25.5 57.5,25.5 56.5,25.5C 56.5,26.5 56.5,27.5 56.5,28.5C 56.631,29.2389 56.4643,29.9056 56,30.5C 55.8091,28.2922 55.3091,26.2922 54.5,24.5C 54.5,23.5 54.5,22.5 54.5,21.5 Z"/></g>
<g><path style="opacity:0.288" fill="#e5e6e7" d="M 38.5,20.5 C 38.5,22.1667 38.5,23.8333 38.5,25.5C 36.5,25.8333 34.5,26.1667 32.5,26.5C 33.5903,25.1429 34.9236,24.1429 36.5,23.5C 37.1667,22.5 37.8333,21.5 38.5,20.5 Z"/></g>
<g><path style="opacity:0.427" fill="#f5f5f5" d="M 53.5,24.5 C 52.5655,25.5676 52.2322,26.901 52.5,28.5C 50.1737,27.8553 48.507,26.522 47.5,24.5C 48.4916,24.6716 49.1583,24.3382 49.5,23.5C 50.8221,23.67 51.9887,23.3366 53,22.5C 53.4643,23.0944 53.631,23.7611 53.5,24.5 Z"/></g>
<g><path style="opacity:1" fill="#333231" d="M 66.5,21.5 C 67.1667,21.5 67.8333,21.5 68.5,21.5C 69.1951,23.4373 68.1951,24.4373 65.5,24.5C 63.4352,24.5172 61.4352,24.8505 59.5,25.5C 59.8333,24.8333 60.1667,24.1667 60.5,23.5C 60.5,22.8333 60.8333,22.5 61.5,22.5C 62.6948,22.6775 63.8615,23.0109 65,23.5C 65.9654,23.0704 66.4654,22.4037 66.5,21.5 Z"/></g>
<g><path style="opacity:0.335" fill="#eaeaea" d="M 46.5,24.5 C 46.8333,24.5 47.1667,24.5 47.5,24.5C 48.507,26.522 50.1737,27.8553 52.5,28.5C 52.631,29.2389 52.4643,29.9056 52,30.5C 49.8428,28.505 47.3428,27.1717 44.5,26.5C 45.1667,25.8333 45.8333,25.1667 46.5,24.5 Z"/></g>
<g><path style="opacity:1" fill="#2f2a20" d="M 65.5,24.5 C 65.5,24.8333 65.5,25.1667 65.5,25.5C 64.0605,27.588 63.3939,29.9214 63.5,32.5C 62.8354,30.6309 62.1687,28.6309 61.5,26.5C 60.7251,28.3022 59.7251,28.9689 58.5,28.5C 57.8333,28.5 57.1667,28.5 56.5,28.5C 56.5,27.5 56.5,26.5 56.5,25.5C 57.5,25.5 58.5,25.5 59.5,25.5C 61.4352,24.8505 63.4352,24.5172 65.5,24.5 Z"/></g>
<g><path style="opacity:0.311" fill="#e3e4e5" d="M 41.5,24.5 C 42.1667,24.5 42.8333,24.5 43.5,24.5C 44.5,24.5 45.5,24.5 46.5,24.5C 45.8333,25.1667 45.1667,25.8333 44.5,26.5C 43.5987,27.2905 42.9321,28.2905 42.5,29.5C 41.2921,30.2341 39.9587,30.5674 38.5,30.5C 37.5,30.1667 36.8333,29.5 36.5,28.5C 37.675,28.719 38.675,28.3857 39.5,27.5C 39.9424,26.2613 40.6091,25.2613 41.5,24.5 Z"/></g>
<g><path style="opacity:1" fill="#1c1c1b" d="M 63.5,32.5 C 65.0311,33.9245 64.6977,34.5912 62.5,34.5C 62.1667,34.5 61.8333,34.5 61.5,34.5C 60.3065,33.7281 59.3065,32.7281 58.5,31.5C 58.5,30.5 58.5,29.5 58.5,28.5C 59.7251,28.9689 60.7251,28.3022 61.5,26.5C 62.1687,28.6309 62.8354,30.6309 63.5,32.5 Z"/></g>
<g><path style="opacity:1" fill="#9d9fb7" d="M 41.5,24.5 C 40.6091,25.2613 39.9424,26.2613 39.5,27.5C 38.675,28.3857 37.675,28.719 36.5,28.5C 35.1266,28.6567 33.7932,28.49 32.5,28C 31.2617,27.31 31.2617,26.81 32.5,26.5C 34.5,26.1667 36.5,25.8333 38.5,25.5C 39.1515,24.9094 39.8182,24.2427 40.5,23.5C 41.1067,23.6236 41.44,23.9569 41.5,24.5 Z"/></g>
<g><path style="opacity:1" fill="#836d4d" d="M 70.5,30.5 C 69.0297,34.5695 66.3631,35.9028 62.5,34.5C 64.6977,34.5912 65.0311,33.9245 63.5,32.5C 63.3939,29.9214 64.0605,27.588 65.5,25.5C 66.8221,25.67 67.9887,25.3366 69,24.5C 69.6838,25.7839 69.5171,26.9505 68.5,28C 69.0659,28.9947 69.7326,29.828 70.5,30.5 Z"/></g>
<g><path style="opacity:0.826" fill="#e5e5e7" d="M 50.5,31.5 C 48.7868,32.6354 48.1201,34.302 48.5,36.5C 49.5,36.5 50.5,36.5 51.5,36.5C 51.5,36.8333 51.5,37.1667 51.5,37.5C 50.1266,37.6567 48.7932,37.49 47.5,37C 45.0281,35.022 42.3615,33.522 39.5,32.5C 41.2161,32.3713 42.8828,32.038 44.5,31.5C 45.1577,30.6016 45.8243,29.6016 46.5,28.5C 47.9014,29.5207 49.2347,30.5207 50.5,31.5 Z"/></g>
<g><path style="opacity:1" fill="#d5d4d4" d="M 53.5,24.5 C 53.5,27.5 53.5,30.5 53.5,33.5C 53.1667,33.5 52.8333,33.5 52.5,33.5C 52.1667,32.5 51.5,31.8333 50.5,31.5C 49.2347,30.5207 47.9014,29.5207 46.5,28.5C 45.8243,29.6016 45.1577,30.6016 44.5,31.5C 44.5,30.1667 43.8333,29.5 42.5,29.5C 42.9321,28.2905 43.5987,27.2905 44.5,26.5C 47.3428,27.1717 49.8428,28.505 52,30.5C 52.4643,29.9056 52.631,29.2389 52.5,28.5C 52.2322,26.901 52.5655,25.5676 53.5,24.5 Z"/></g>
<g><path style="opacity:1" fill="#707198" d="M 42.5,29.5 C 43.8333,29.5 44.5,30.1667 44.5,31.5C 42.8828,32.038 41.2161,32.3713 39.5,32.5C 37.3023,32.5912 36.9689,31.9245 38.5,30.5C 39.9587,30.5674 41.2921,30.2341 42.5,29.5 Z"/></g>
<g><path style="opacity:1" fill="#a59a95" d="M 53.5,24.5 C 53.8333,24.5 54.1667,24.5 54.5,24.5C 55.3091,26.2922 55.8091,28.2922 56,30.5C 56.4643,29.9056 56.631,29.2389 56.5,28.5C 57.1667,28.5 57.8333,28.5 58.5,28.5C 58.5,29.5 58.5,30.5 58.5,31.5C 57.8333,31.5 57.1667,31.5 56.5,31.5C 55.7777,32.5511 54.7777,33.2178 53.5,33.5C 53.5,30.5 53.5,27.5 53.5,24.5 Z"/></g>
<g><path style="opacity:1" fill="#848da7" d="M 50.5,31.5 C 51.5,31.8333 52.1667,32.5 52.5,33.5C 52.4431,34.609 52.1098,35.609 51.5,36.5C 50.5,36.5 49.5,36.5 48.5,36.5C 48.1201,34.302 48.7868,32.6354 50.5,31.5 Z"/></g>
<g><path style="opacity:0.544" fill="#e2e2e2" d="M 56.5,31.5 C 57.038,33.1172 57.3713,34.7839 57.5,36.5C 55.5,36.5 53.5,36.5 51.5,36.5C 52.1098,35.609 52.4431,34.609 52.5,33.5C 52.8333,33.5 53.1667,33.5 53.5,33.5C 54.7777,33.2178 55.7777,32.5511 56.5,31.5 Z"/></g>
<g><path style="opacity:0.824" fill="#efefef" d="M 56.5,31.5 C 57.1667,31.5 57.8333,31.5 58.5,31.5C 59.3065,32.7281 60.3065,33.7281 61.5,34.5C 58.7664,37.1426 55.4331,38.1426 51.5,37.5C 51.5,37.1667 51.5,36.8333 51.5,36.5C 53.5,36.5 55.5,36.5 57.5,36.5C 57.3713,34.7839 57.038,33.1172 56.5,31.5 Z"/></g>
</svg>
