<?xml version="1.0" encoding="UTF-8"?>
<!DOCTYPE svg PUBLIC "-//W3C//DTD SVG 1.1//EN" "http://www.w3.org/Graphics/SVG/1.1/DTD/svg11.dtd">
<svg xmlns="http://www.w3.org/2000/svg" version="1.1" width="108px" height="87px" style="shape-rendering:geometricPrecision; text-rendering:geometricPrecision; image-rendering:optimizeQuality; fill-rule:evenodd; clip-rule:evenodd" xmlns:xlink="http://www.w3.org/1999/xlink">
<g><path style="opacity:1" fill="#fdfdfe" d="M -0.5,-0.5 C 35.5,-0.5 71.5,-0.5 107.5,-0.5C 107.5,28.5 107.5,57.5 107.5,86.5C 71.5,86.5 35.5,86.5 -0.5,86.5C -0.5,57.5 -0.5,28.5 -0.5,-0.5 Z"/></g>
<g><path style="opacity:1" fill="#bbbcbc" d="M 92.5,12.5 C 77.5,12.5 62.5,12.5 47.5,12.5C 47.1667,12.5 46.8333,12.5 46.5,12.5C 46.5,12.1667 46.5,11.8333 46.5,11.5C 60.1829,11.8325 73.8496,11.4992 87.5,10.5C 89.2875,7.91083 89.6208,8.0775 88.5,11C 90.0581,11.21 91.3915,11.71 92.5,12.5 Z"/></g>
<g><path style="opacity:1" fill="#fbac8f" d="M 37.5,10.5 C 40.7131,10.19 43.7131,10.5233 46.5,11.5C 46.5,11.8333 46.5,12.1667 46.5,12.5C 46.5,15.5 46.5,18.5 46.5,21.5C 43.5,21.5 40.5,21.5 37.5,21.5C 37.5,18.5 37.5,15.5 37.5,12.5C 37.5,11.8333 37.5,11.1667 37.5,10.5 Z"/></g>
<g><path style="opacity:1" fill="#c6c7c7" d="M 37.5,10.5 C 37.5,11.1667 37.5,11.8333 37.5,12.5C 37.1667,12.5 36.8333,12.5 36.5,12.5C 33.5,12.5 30.5,12.5 27.5,12.5C 23.9581,12.1872 20.6248,12.5206 17.5,13.5C 17.5,16.1667 17.5,18.8333 17.5,21.5C 14.8333,21.5 12.1667,21.5 9.5,21.5C 11.6074,20.5318 13.9407,20.1984 16.5,20.5C 16.7771,17.5525 16.4438,14.7191 15.5,12C 22.9123,11.799 30.2456,11.299 37.5,10.5 Z"/></g>
<g><path style="opacity:1" fill="#bdbcbb" d="M 88.5,13.5 C 89.8333,13.5 91.1667,13.5 92.5,13.5C 93.4682,15.6074 93.8016,17.9407 93.5,20.5C 92.8333,21.1667 92.1667,21.8333 91.5,22.5C 91.6309,21.6236 91.2975,20.9569 90.5,20.5C 89.6043,21.5063 88.9377,21.5063 88.5,20.5C 89.1667,19.8333 89.8333,19.1667 90.5,18.5C 89.8333,18.1667 89.1667,17.8333 88.5,17.5C 89.1667,16.8333 89.8333,16.1667 90.5,15.5C 90.1543,14.3044 89.6543,14.3044 89,15.5C 88.5357,14.9056 88.369,14.2389 88.5,13.5 Z"/></g>
<g><path style="opacity:1" fill="#969790" d="M 17.5,13.5 C 20.6248,12.5206 23.9581,12.1872 27.5,12.5C 27.7214,13.7348 28.3881,14.7348 29.5,15.5C 25.8333,18.1667 22.1667,18.1667 18.5,15.5C 21.1306,13.9954 20.7973,13.3287 17.5,13.5 Z"/></g>
<g><path style="opacity:1" fill="#201d13" d="M 27.5,12.5 C 30.5,12.5 33.5,12.5 36.5,12.5C 36.5,14.5 36.5,16.5 36.5,18.5C 34.8828,19.038 33.2161,19.3713 31.5,19.5C 28.8938,20.1359 26.3938,20.1359 24,19.5C 22.2111,21.229 20.0444,21.8957 17.5,21.5C 17.5,18.8333 17.5,16.1667 17.5,13.5C 20.7973,13.3287 21.1306,13.9954 18.5,15.5C 22.1667,18.1667 25.8333,18.1667 29.5,15.5C 28.3881,14.7348 27.7214,13.7348 27.5,12.5 Z"/></g>
<g><path style="opacity:1" fill="#dddfdf" d="M 81.5,14.5 C 81.5987,17.2372 81.2653,19.9039 80.5,22.5C 78.1667,22.5 75.8333,22.5 73.5,22.5C 73.5,19.5 73.5,16.5 73.5,13.5C 76.2788,13.2786 78.9455,13.612 81.5,14.5 Z"/></g>
<g><path style="opacity:1" fill="#8f8f8d" d="M 31.5,19.5 C 31.6716,20.4916 31.3382,21.1583 30.5,21.5C 28.5,21.5 26.5,21.5 24.5,21.5C 24.5,26.1667 24.5,30.8333 24.5,35.5C 26.5,35.5 28.5,35.5 30.5,35.5C 30.5,31.1667 30.5,26.8333 30.5,22.5C 31.4816,25.9619 31.815,29.6286 31.5,33.5C 32.5676,34.4345 33.901,34.7678 35.5,34.5C 31.6081,36.3529 27.2748,37.3529 22.5,37.5C 21.3646,35.7868 19.698,35.1201 17.5,35.5C 17.1667,35.5 16.8333,35.5 16.5,35.5C 14.1667,35.5 11.8333,35.5 9.5,35.5C 9.5,30.8333 9.5,26.1667 9.5,21.5C 12.1667,21.5 14.8333,21.5 17.5,21.5C 20.0444,21.8957 22.2111,21.229 24,19.5C 26.3938,20.1359 28.8938,20.1359 31.5,19.5 Z"/></g>
<g><path style="opacity:1" fill="#c2c2c2" d="M 30.5,21.5 C 30.5,21.8333 30.5,22.1667 30.5,22.5C 30.5,26.8333 30.5,31.1667 30.5,35.5C 28.5,35.5 26.5,35.5 24.5,35.5C 24.5,30.8333 24.5,26.1667 24.5,21.5C 26.5,21.5 28.5,21.5 30.5,21.5 Z"/></g>
<g><path style="opacity:1" fill="#a68064" d="M 36.5,12.5 C 36.8333,12.5 37.1667,12.5 37.5,12.5C 37.5,15.5 37.5,18.5 37.5,21.5C 40.5,21.5 43.5,21.5 46.5,21.5C 46.5,18.5 46.5,15.5 46.5,12.5C 46.8333,12.5 47.1667,12.5 47.5,12.5C 47.5,15.5 47.5,18.5 47.5,21.5C 48.5,21.5 49.5,21.5 50.5,21.5C 50.1936,18.6146 50.5269,15.9479 51.5,13.5C 51.5,16.5 51.5,19.5 51.5,22.5C 50.8333,22.5 50.5,22.8333 50.5,23.5C 49.1667,23.5 47.8333,23.5 46.5,23.5C 43.8377,22.3607 41.171,22.1941 38.5,23C 36.8934,21.951 36.2267,20.451 36.5,18.5C 36.5,16.5 36.5,14.5 36.5,12.5 Z"/></g>
<g><path style="opacity:1" fill="#e6e6e5" d="M 51.5,13.5 C 53.8333,13.5 56.1667,13.5 58.5,13.5C 58.5,16.5 58.5,19.5 58.5,22.5C 56.1667,22.5 53.8333,22.5 51.5,22.5C 51.5,19.5 51.5,16.5 51.5,13.5 Z"/></g>
<g><path style="opacity:1" fill="#51524d" d="M 84.5,13.5 C 84.5,16.5 84.5,19.5 84.5,22.5C 86.8333,22.5 89.1667,22.5 91.5,22.5C 87.9829,23.6203 84.3163,23.6203 80.5,22.5C 81.2653,19.9039 81.5987,17.2372 81.5,14.5C 82.609,14.4431 83.609,14.1098 84.5,13.5 Z"/></g>
<g><path style="opacity:1" fill="#e1e2e3" d="M 84.5,13.5 C 85.8333,13.5 87.1667,13.5 88.5,13.5C 88.369,14.2389 88.5357,14.9056 89,15.5C 89.6543,14.3044 90.1543,14.3044 90.5,15.5C 89.8333,16.1667 89.1667,16.8333 88.5,17.5C 89.1667,17.8333 89.8333,18.1667 90.5,18.5C 89.8333,19.1667 89.1667,19.8333 88.5,20.5C 88.9377,21.5063 89.6043,21.5063 90.5,20.5C 91.2975,20.9569 91.6309,21.6236 91.5,22.5C 89.1667,22.5 86.8333,22.5 84.5,22.5C 84.5,19.5 84.5,16.5 84.5,13.5 Z"/></g>
<g><path style="opacity:1" fill="#38352c" d="M 47.5,12.5 C 62.5,12.5 77.5,12.5 92.5,12.5C 92.5,12.8333 92.5,13.1667 92.5,13.5C 91.1667,13.5 89.8333,13.5 88.5,13.5C 87.1667,13.5 85.8333,13.5 84.5,13.5C 83.609,14.1098 82.609,14.4431 81.5,14.5C 78.9455,13.612 76.2788,13.2786 73.5,13.5C 73.5,16.5 73.5,19.5 73.5,22.5C 75.8333,22.5 78.1667,22.5 80.5,22.5C 76.9829,23.6203 73.3163,23.6203 69.5,22.5C 68.1667,23.1667 66.8333,23.8333 65.5,24.5C 53.6176,24.8757 53.6176,25.8757 65.5,27.5C 65.2053,29.7354 65.5386,31.7354 66.5,33.5C 66.5,34.1667 66.5,34.8333 66.5,35.5C 62.7104,35.0077 62.0437,35.841 64.5,38C 63.4232,38.4696 62.4232,38.3029 61.5,37.5C 61.3573,35.7376 61.6906,34.0709 62.5,32.5C 60.604,31.5344 58.604,31.2011 56.5,31.5C 56.5,30.5 56.5,29.5 56.5,28.5C 55.1779,28.33 54.0113,28.6634 53,29.5C 52.8138,32.0356 52.3138,34.369 51.5,36.5C 51.5,33.5 51.5,30.5 51.5,27.5C 52.8734,27.6567 54.2068,27.49 55.5,27C 52.8333,26.3333 52.8333,25.6667 55.5,25C 53.7525,24.6481 52.0858,24.1481 50.5,23.5C 50.5,22.8333 50.8333,22.5 51.5,22.5C 53.8333,22.5 56.1667,22.5 58.5,22.5C 58.5,19.5 58.5,16.5 58.5,13.5C 56.1667,13.5 53.8333,13.5 51.5,13.5C 50.5269,15.9479 50.1936,18.6146 50.5,21.5C 49.5,21.5 48.5,21.5 47.5,21.5C 47.5,18.5 47.5,15.5 47.5,12.5 Z"/></g>
<g><path style="opacity:1" fill="#e8e8e7" d="M 69.5,22.5 C 67.1667,22.5 64.8333,22.5 62.5,22.5C 62.5,19.5 62.5,16.5 62.5,13.5C 64.8333,13.5 67.1667,13.5 69.5,13.5C 69.5,16.5 69.5,19.5 69.5,22.5 Z"/></g>
<g><path style="opacity:1" fill="#28251a" d="M 93.5,20.5 C 93.0653,23.8375 93.7319,26.8375 95.5,29.5C 92.1667,29.5 88.8333,29.5 85.5,29.5C 85.3893,28.8826 85.056,28.3826 84.5,28C 82.1902,27.5034 79.8568,27.3367 77.5,27.5C 76.391,27.5569 75.391,27.8902 74.5,28.5C 72.0521,27.5269 69.3854,27.1936 66.5,27.5C 66.5,29.5 66.5,31.5 66.5,33.5C 65.5386,31.7354 65.2053,29.7354 65.5,27.5C 65.5,26.5 65.5,25.5 65.5,24.5C 66.8333,23.8333 68.1667,23.1667 69.5,22.5C 73.3163,23.6203 76.9829,23.6203 80.5,22.5C 84.3163,23.6203 87.9829,23.6203 91.5,22.5C 92.1667,21.8333 92.8333,21.1667 93.5,20.5 Z"/></g>
<g><path style="opacity:1" fill="#bdd8d5" d="M 46.5,23.5 C 47.8333,23.5 49.1667,23.5 50.5,23.5C 52.0858,24.1481 53.7525,24.6481 55.5,25C 52.8333,25.6667 52.8333,26.3333 55.5,27C 54.2068,27.49 52.8734,27.6567 51.5,27.5C 51.5,30.5 51.5,33.5 51.5,36.5C 51.1667,36.5 50.8333,36.5 50.5,36.5C 49.5,36.5 48.5,36.5 47.5,36.5C 46.8333,36.5 46.5,36.1667 46.5,35.5C 46.5,34.5 46.5,33.5 46.5,32.5C 46.5,30.1667 46.5,27.8333 46.5,25.5C 46.5,24.8333 46.5,24.1667 46.5,23.5 Z"/></g>
<g><path style="opacity:1" fill="#8f8770" d="M 65.5,24.5 C 65.5,25.5 65.5,26.5 65.5,27.5C 53.6176,25.8757 53.6176,24.8757 65.5,24.5 Z"/></g>
<g><path style="opacity:1" fill="#413f3a" d="M 36.5,18.5 C 36.2267,20.451 36.8934,21.951 38.5,23C 41.171,22.1941 43.8377,22.3607 46.5,23.5C 46.5,24.1667 46.5,24.8333 46.5,25.5C 45.8333,25.5 45.1667,25.5 44.5,25.5C 41.6085,24.5975 38.6085,24.2641 35.5,24.5C 35.5,23.1667 35.5,21.8333 35.5,20.5C 34.5,20.5 33.5,20.5 32.5,20.5C 32.5,22.5 32.5,24.5 32.5,26.5C 36.1667,26.5 39.8333,26.5 43.5,26.5C 43.5,27.8333 43.5,29.1667 43.5,30.5C 39.1176,30.4435 35.1176,31.4435 31.5,33.5C 31.815,29.6286 31.4816,25.9619 30.5,22.5C 30.5,22.1667 30.5,21.8333 30.5,21.5C 31.3382,21.1583 31.6716,20.4916 31.5,19.5C 33.2161,19.3713 34.8828,19.038 36.5,18.5 Z"/></g>
<g><path style="opacity:1" fill="#6a5f48" d="M 44.5,25.5 C 43.9898,28.3878 44.6565,30.7211 46.5,32.5C 46.5,33.5 46.5,34.5 46.5,35.5C 44.0013,32.9852 41.3346,32.9852 38.5,35.5C 37.3527,35.1822 36.5194,34.5156 36,33.5C 35.6012,33.7284 35.4346,34.0618 35.5,34.5C 33.901,34.7678 32.5676,34.4345 31.5,33.5C 35.1176,31.4435 39.1176,30.4435 43.5,30.5C 43.5,29.1667 43.5,27.8333 43.5,26.5C 39.8333,26.5 36.1667,26.5 32.5,26.5C 32.5,24.5 32.5,22.5 32.5,20.5C 33.5,20.5 34.5,20.5 35.5,20.5C 35.5,21.8333 35.5,23.1667 35.5,24.5C 38.6085,24.2641 41.6085,24.5975 44.5,25.5 Z"/></g>
<g><path style="opacity:1" fill="#aa8c67" d="M 44.5,25.5 C 45.1667,25.5 45.8333,25.5 46.5,25.5C 46.5,27.8333 46.5,30.1667 46.5,32.5C 44.6565,30.7211 43.9898,28.3878 44.5,25.5 Z"/></g>
<g><path style="opacity:1" fill="#4d4a41" d="M 77.5,27.5 C 77.5,31.5 77.5,35.5 77.5,39.5C 76.609,38.8902 75.609,38.5569 74.5,38.5C 74.5,35.1667 74.5,31.8333 74.5,28.5C 75.391,27.8902 76.391,27.5569 77.5,27.5 Z"/></g>
<g><path style="opacity:1" fill="#e9eaea" d="M 77.5,27.5 C 79.8568,27.3367 82.1902,27.5034 84.5,28C 85.056,28.3826 85.3893,28.8826 85.5,29.5C 87.5062,36.8781 84.8396,40.2115 77.5,39.5C 77.5,35.5 77.5,31.5 77.5,27.5 Z"/></g>
<g><path style="opacity:1" fill="#9a8158" d="M 56.5,31.5 C 58.604,31.2011 60.604,31.5344 62.5,32.5C 61.6906,34.0709 61.3573,35.7376 61.5,37.5C 59.5,37.5 57.5,37.5 55.5,37.5C 55.8432,35.5168 55.1765,34.1834 53.5,33.5C 54.2905,32.5987 55.2905,31.9321 56.5,31.5 Z"/></g>
<g><path style="opacity:1" fill="#9a912d" d="M 53.5,33.5 C 55.1765,34.1834 55.8432,35.5168 55.5,37.5C 53.8235,36.8166 53.1568,35.4832 53.5,33.5 Z"/></g>
<g><path style="opacity:1" fill="#e5e5e5" d="M 74.5,28.5 C 74.5,31.8333 74.5,35.1667 74.5,38.5C 72.0521,39.4731 69.3854,39.8064 66.5,39.5C 66.5,38.1667 66.5,36.8333 66.5,35.5C 66.5,34.8333 66.5,34.1667 66.5,33.5C 66.5,31.5 66.5,29.5 66.5,27.5C 69.3854,27.1936 72.0521,27.5269 74.5,28.5 Z"/></g>
<g><path style="opacity:1" fill="#201d14" d="M 96.5,30.5 C 96.5,31.8333 96.5,33.1667 96.5,34.5C 95.5,34.5 94.5,34.5 93.5,34.5C 93.1568,36.4832 93.8235,37.8166 95.5,38.5C 95.9253,48.5482 93.9253,49.0482 89.5,40C 90.5709,38.1745 89.9042,37.0079 87.5,36.5C 86.5344,34.604 86.2011,32.604 86.5,30.5C 89.8333,30.5 93.1667,30.5 96.5,30.5 Z"/></g>
<g><path style="opacity:1" fill="#a2a36b" d="M 96.5,34.5 C 96.5,35.8333 96.5,37.1667 96.5,38.5C 96.1667,38.5 95.8333,38.5 95.5,38.5C 93.8235,37.8166 93.1568,36.4832 93.5,34.5C 94.5,34.5 95.5,34.5 96.5,34.5 Z"/></g>
<g><path style="opacity:1" fill="#201d14" d="M 56.5,31.5 C 55.2905,31.9321 54.2905,32.5987 53.5,33.5C 53.1568,35.4832 53.8235,36.8166 55.5,37.5C 57.5,37.5 59.5,37.5 61.5,37.5C 62.4232,38.3029 63.4232,38.4696 64.5,38C 62.0437,35.841 62.7104,35.0077 66.5,35.5C 66.5,36.8333 66.5,38.1667 66.5,39.5C 69.3854,39.8064 72.0521,39.4731 74.5,38.5C 75.609,38.5569 76.609,38.8902 77.5,39.5C 79.6074,40.4682 81.9407,40.8016 84.5,40.5C 84.5,42.1667 84.5,43.8333 84.5,45.5C 82.1667,45.5 79.8333,45.5 77.5,45.5C 76.5,46.1667 75.5,46.8333 74.5,47.5C 74.5,47.1667 74.5,46.8333 74.5,46.5C 72.0521,45.5269 69.3854,45.1936 66.5,45.5C 66.5,49.8333 66.5,54.1667 66.5,58.5C 69.3854,58.8064 72.0521,58.4731 74.5,57.5C 75.5,57.5 76.5,57.5 77.5,57.5C 79.8333,58.8333 82.1667,58.8333 84.5,57.5C 85.1667,57.5 85.8333,57.5 86.5,57.5C 87.8606,59.5273 89.5273,61.194 91.5,62.5C 89.2478,61.6669 87.0811,61.6669 85,62.5C 84.502,65.4816 84.3354,68.4816 84.5,71.5C 83.5,72.8333 82.5,72.8333 81.5,71.5C 81.4921,68.4552 81.1587,65.4552 80.5,62.5C 78.1667,62.5 75.8333,62.5 73.5,62.5C 73.5,65.8333 73.5,69.1667 73.5,72.5C 71.901,72.7678 70.5676,72.4345 69.5,71.5C 69.5,68.5 69.5,65.5 69.5,62.5C 67.1667,62.5 64.8333,62.5 62.5,62.5C 61.5206,65.6248 61.1872,68.9581 61.5,72.5C 60.209,72.7373 59.209,72.404 58.5,71.5C 58.81,68.2869 58.4767,65.2869 57.5,62.5C 58.3909,61.7387 59.0576,60.7387 59.5,59.5C 59.2528,58.2867 58.5862,57.62 57.5,57.5C 56.5,57.5 55.5,57.5 54.5,57.5C 53.5489,58.9187 53.2155,60.5853 53.5,62.5C 52.8333,62.5 52.1667,62.5 51.5,62.5C 50.5206,65.6248 50.1872,68.9581 50.5,72.5C 49.5,72.5 48.5,72.5 47.5,72.5C 47.7471,69.0613 47.4137,65.728 46.5,62.5C 45.7375,61.7321 44.7375,61.2321 43.5,61C 44.756,60.5831 45.4226,59.7498 45.5,58.5C 45.5,57.8333 45.5,57.1667 45.5,56.5C 44.0669,54.4418 43.4003,52.1085 43.5,49.5C 40.8333,49.5 38.1667,49.5 35.5,49.5C 35.3713,51.2161 35.038,52.8828 34.5,54.5C 32.8235,55.1834 32.1568,56.5168 32.5,58.5C 33.9989,62.2602 36.1655,62.9269 39,60.5C 39.8333,60.6667 40.6667,60.8333 41.5,61C 40.5842,61.2784 39.9175,61.7784 39.5,62.5C 38.8333,62.8333 38.1667,63.1667 37.5,63.5C 35.8212,63.2852 34.8212,63.9519 34.5,65.5C 33.2502,65.4226 32.4169,64.756 32,63.5C 31.7104,65.0441 31.0437,66.3774 30,67.5C 29.8138,64.9644 29.3138,62.631 28.5,60.5C 27.5475,58.39 25.8808,57.2233 23.5,57C 24.756,56.5831 25.4226,55.7498 25.5,54.5C 26.1667,54.5 26.8333,54.5 27.5,54.5C 28.2506,55.5735 29.2506,55.7401 30.5,55C 31.5981,54.2303 31.5981,53.397 30.5,52.5C 30.8051,50.0807 30.8051,47.414 30.5,44.5C 30.5,43.5 30.5,42.5 30.5,41.5C 29.209,41.2627 28.209,41.596 27.5,42.5C 25.2417,42.2249 24.9084,41.2249 26.5,39.5C 25.7261,38.2888 24.8928,38.2888 24,39.5C 23.2496,38.8742 22.4162,38.3742 21.5,38C 21.7284,37.6012 22.0618,37.4346 22.5,37.5C 27.2748,37.3529 31.6081,36.3529 35.5,34.5C 35.4346,34.0618 35.6012,33.7284 36,33.5C 36.5194,34.5156 37.3527,35.1822 38.5,35.5C 41.3346,32.9852 44.0013,32.9852 46.5,35.5C 46.5,36.1667 46.8333,36.5 47.5,36.5C 48.5,39.1667 49.5,39.1667 50.5,36.5C 50.8333,36.5 51.1667,36.5 51.5,36.5C 52.3138,34.369 52.8138,32.0356 53,29.5C 54.0113,28.6634 55.1779,28.33 56.5,28.5C 56.5,29.5 56.5,30.5 56.5,31.5 Z"/></g>
<g><path style="opacity:1" fill="#6e5a22" d="M 47.5,36.5 C 48.5,36.5 49.5,36.5 50.5,36.5C 49.5,39.1667 48.5,39.1667 47.5,36.5 Z"/></g>
<g><path style="opacity:1" fill="#64625d" d="M 40.5,37.5 C 42.5273,37.3379 44.5273,37.5045 46.5,38C 45.1667,38.6667 45.1667,39.3333 46.5,40C 44.5273,40.4955 42.5273,40.6621 40.5,40.5C 40.5,39.5 40.5,38.5 40.5,37.5 Z"/></g>
<g><path style="opacity:1" fill="#b3b9cb" d="M 16.5,35.5 C 16.8333,35.5 17.1667,35.5 17.5,35.5C 17.5,35.8333 17.5,36.1667 17.5,36.5C 17.5,38.1667 17.5,39.8333 17.5,41.5C 18.8333,41.5 20.1667,41.5 21.5,41.5C 21.5,43.8333 21.5,46.1667 21.5,48.5C 17.5,49.1667 17.5,49.8333 21.5,50.5C 21.5,52.8333 21.5,55.1667 21.5,57.5C 20.1667,57.5 18.8333,57.5 17.5,57.5C 17.5,58.5 17.5,59.5 17.5,60.5C 16.1667,60.5 14.8333,60.5 13.5,60.5C 14.209,59.596 15.209,59.2627 16.5,59.5C 16.6334,56.4131 15.3001,54.4131 12.5,53.5C 11.5489,52.0813 11.2155,50.4147 11.5,48.5C 12.8333,48.5 14.1667,48.5 15.5,48.5C 15.7395,44.1578 16.0728,39.8244 16.5,35.5 Z"/></g>
<g><path style="opacity:1" fill="#a08c4f" d="M 30.5,44.5 C 28.8212,44.7148 27.8212,44.0481 27.5,42.5C 28.209,41.596 29.209,41.2627 30.5,41.5C 30.5,42.5 30.5,43.5 30.5,44.5 Z"/></g>
<g><path style="opacity:1" fill="#93805a" d="M 52.5,40.5 C 56.5,40.5 60.5,40.5 64.5,40.5C 64.5,41.8333 64.5,43.1667 64.5,44.5C 60.7507,44.6171 57.084,45.2838 53.5,46.5C 52.1667,46.1667 50.8333,45.8333 49.5,45.5C 50.325,44.6143 51.325,44.281 52.5,44.5C 52.5,43.1667 52.5,41.8333 52.5,40.5 Z"/></g>
<g><path style="opacity:1" fill="#7a7059" d="M 35.5,49.5 C 34.8485,50.0906 34.1818,50.7573 33.5,51.5C 32.5258,49.2573 32.1924,46.924 32.5,44.5C 33.8333,44.5 35.1667,44.5 36.5,44.5C 36.5,43.5 36.5,42.5 36.5,41.5C 38.1667,41.5 39.8333,41.5 41.5,41.5C 41.5,42.8333 41.5,44.1667 41.5,45.5C 39.5,45.5 37.5,45.5 35.5,45.5C 35.5,46.8333 35.5,48.1667 35.5,49.5 Z"/></g>
<g><path style="opacity:1" fill="#eeeeee" d="M 74.5,46.5 C 74.5,46.8333 74.5,47.1667 74.5,47.5C 74.5,50.8333 74.5,54.1667 74.5,57.5C 72.1667,57.5 69.8333,57.5 67.5,57.5C 67.5,53.8333 67.5,50.1667 67.5,46.5C 69.8333,46.5 72.1667,46.5 74.5,46.5 Z"/></g>
<g><path style="opacity:1" fill="#040404" d="M 49.5,47.5 C 51.8333,47.5 54.1667,47.5 56.5,47.5C 56.5,49.8333 56.5,52.1667 56.5,54.5C 50.5,55.8333 48.1667,53.5 49.5,47.5 Z"/></g>
<g><path style="opacity:1" fill="#454a49" d="M 85.5,29.5 C 88.8333,29.5 92.1667,29.5 95.5,29.5C 96.1667,29.5 96.5,29.8333 96.5,30.5C 93.1667,30.5 89.8333,30.5 86.5,30.5C 86.2011,32.604 86.5344,34.604 87.5,36.5C 89.9042,37.0079 90.5709,38.1745 89.5,40C 93.9253,49.0482 95.9253,48.5482 95.5,38.5C 95.8333,38.5 96.1667,38.5 96.5,38.5C 96.5,41.5 96.5,44.5 96.5,47.5C 95.5,47.5 94.5,47.5 93.5,47.5C 92.5178,46.8592 91.5178,46.1925 90.5,45.5C 90.0894,46.2624 89.9227,47.2624 90,48.5C 88.9887,49.3366 87.8221,49.67 86.5,49.5C 86.5,51.8333 86.5,54.1667 86.5,56.5C 85.8333,52.8333 85.1667,49.1667 84.5,45.5C 84.5,43.8333 84.5,42.1667 84.5,40.5C 81.9407,40.8016 79.6074,40.4682 77.5,39.5C 84.8396,40.2115 87.5062,36.8781 85.5,29.5 Z"/></g>
<g><path style="opacity:1" fill="#1e1b10" d="M 93.5,47.5 C 93.5,47.8333 93.5,48.1667 93.5,48.5C 93.8212,50.0481 94.8212,50.7148 96.5,50.5C 96.5,54.1667 96.5,57.8333 96.5,61.5C 95.1266,61.6567 93.7932,61.49 92.5,61C 90.5952,59.5787 88.5952,58.412 86.5,57.5C 86.5,57.1667 86.5,56.8333 86.5,56.5C 86.5,54.1667 86.5,51.8333 86.5,49.5C 87.8221,49.67 88.9887,49.3366 90,48.5C 89.9227,47.2624 90.0894,46.2624 90.5,45.5C 91.5178,46.1925 92.5178,46.8592 93.5,47.5 Z"/></g>
<g><path style="opacity:1" fill="#bebb6b" d="M 93.5,48.5 C 95.0269,48.427 96.0269,49.0937 96.5,50.5C 94.8212,50.7148 93.8212,50.0481 93.5,48.5 Z"/></g>
<g><path style="opacity:1" fill="#686457" d="M 17.5,36.5 C 17.5,36.1667 17.5,35.8333 17.5,35.5C 19.698,35.1201 21.3646,35.7868 22.5,37.5C 22.0618,37.4346 21.7284,37.6012 21.5,38C 22.4162,38.3742 23.2496,38.8742 24,39.5C 24.8928,38.2888 25.7261,38.2888 26.5,39.5C 24.9084,41.2249 25.2417,42.2249 27.5,42.5C 27.8212,44.0481 28.8212,44.7148 30.5,44.5C 30.8051,47.414 30.8051,50.0807 30.5,52.5C 27.4017,52.4125 27.0684,52.9125 29.5,54C 28.9056,54.4643 28.2389,54.631 27.5,54.5C 26.8333,54.5 26.1667,54.5 25.5,54.5C 24.7611,54.631 24.0944,54.4643 23.5,54C 24.087,50.0697 24.2536,45.9031 24,41.5C 22.1746,40.8971 20.3413,40.2304 18.5,39.5C 19.7768,38.0783 19.4435,37.0783 17.5,36.5 Z"/></g>
<g><path style="opacity:1" fill="#97895d" d="M 57.5,47.5 C 58.7251,48.1522 59.3917,49.3189 59.5,51C 59.1667,52.1667 58.8333,53.3333 58.5,54.5C 57.5258,52.2573 57.1924,49.924 57.5,47.5 Z"/></g>
<g><path style="opacity:1" fill="#786b42" d="M 35.5,49.5 C 38.1667,49.5 40.8333,49.5 43.5,49.5C 43.4003,52.1085 44.0669,54.4418 45.5,56.5C 44.1283,55.4884 42.795,54.4884 41.5,53.5C 40.9032,52.8614 40.0698,52.528 39,52.5C 37.6244,52.6842 36.7911,53.3509 36.5,54.5C 35.8333,54.5 35.1667,54.5 34.5,54.5C 35.038,52.8828 35.3713,51.2161 35.5,49.5 Z"/></g>
<g><path style="opacity:1" fill="#8c8a85" d="M 74.5,46.5 C 72.1667,46.5 69.8333,46.5 67.5,46.5C 67.5,50.1667 67.5,53.8333 67.5,57.5C 69.8333,57.5 72.1667,57.5 74.5,57.5C 72.0521,58.4731 69.3854,58.8064 66.5,58.5C 66.5,54.1667 66.5,49.8333 66.5,45.5C 69.3854,45.1936 72.0521,45.5269 74.5,46.5 Z"/></g>
<g><path style="opacity:1" fill="#423f36" d="M 77.5,45.5 C 77.5,49.5 77.5,53.5 77.5,57.5C 76.5,57.5 75.5,57.5 74.5,57.5C 74.5,54.1667 74.5,50.8333 74.5,47.5C 75.5,46.8333 76.5,46.1667 77.5,45.5 Z"/></g>
<g><path style="opacity:1" fill="#b8bab9" d="M 77.5,45.5 C 79.8333,45.5 82.1667,45.5 84.5,45.5C 85.1667,49.1667 85.8333,52.8333 86.5,56.5C 86.5,56.8333 86.5,57.1667 86.5,57.5C 85.8333,57.5 85.1667,57.5 84.5,57.5C 82.1667,58.8333 79.8333,58.8333 77.5,57.5C 77.5,53.5 77.5,49.5 77.5,45.5 Z"/></g>
<g><path style="opacity:1" fill="#f1f2f2" d="M 84.5,57.5 C 82.5,57.5 80.5,57.5 78.5,57.5C 78.5,53.8333 78.5,50.1667 78.5,46.5C 80.5273,46.3379 82.5273,46.5045 84.5,47C 83.2035,50.4989 83.2035,53.9989 84.5,57.5 Z"/></g>
<g><path style="opacity:1" fill="#48565e" d="M 12.5,53.5 C 12.5,52.1667 12.5,50.8333 12.5,49.5C 13.5,49.5 14.5,49.5 15.5,49.5C 15.5,50.8333 15.5,52.1667 15.5,53.5C 14.5,53.5 13.5,53.5 12.5,53.5 Z"/></g>
<g><path style="opacity:1" fill="#201d15" d="M 41.5,53.5 C 39.8828,54.038 38.2161,54.3713 36.5,54.5C 36.7911,53.3509 37.6244,52.6842 39,52.5C 40.0698,52.528 40.9032,52.8614 41.5,53.5 Z"/></g>
<g><path style="opacity:1" fill="#9a8136" d="M 30.5,52.5 C 31.5981,53.397 31.5981,54.2303 30.5,55C 29.2506,55.7401 28.2506,55.5735 27.5,54.5C 28.2389,54.631 28.9056,54.4643 29.5,54C 27.0684,52.9125 27.4017,52.4125 30.5,52.5 Z"/></g>
<g><path style="opacity:1" fill="#6c644c" d="M 49.5,47.5 C 48.1667,53.5 50.5,55.8333 56.5,54.5C 56.6107,55.1174 56.944,55.6174 57.5,56C 54.7728,56.8184 52.1062,56.6517 49.5,55.5C 48.415,54.2159 47.7483,52.7159 47.5,51C 47.6083,49.3189 48.2749,48.1522 49.5,47.5 Z"/></g>
<g><path style="opacity:1" fill="#a5a5a4" d="M 41.5,53.5 C 42.795,54.4884 44.1283,55.4884 45.5,56.5C 45.5,57.1667 45.5,57.8333 45.5,58.5C 41.1667,58.5 36.8333,58.5 32.5,58.5C 32.1568,56.5168 32.8235,55.1834 34.5,54.5C 35.1667,54.5 35.8333,54.5 36.5,54.5C 38.2161,54.3713 39.8828,54.038 41.5,53.5 Z"/></g>
<g><path style="opacity:1" fill="#676156" d="M 32.5,58.5 C 36.8333,58.5 41.1667,58.5 45.5,58.5C 45.4226,59.7498 44.756,60.5831 43.5,61C 44.7375,61.2321 45.7375,61.7321 46.5,62.5C 44.1183,63.5463 41.7849,63.5463 39.5,62.5C 39.9175,61.7784 40.5842,61.2784 41.5,61C 40.6667,60.8333 39.8333,60.6667 39,60.5C 36.1655,62.9269 33.9989,62.2602 32.5,58.5 Z"/></g>
<g><path style="opacity:1" fill="#3b3a34" d="M 17.5,36.5 C 19.4435,37.0783 19.7768,38.0783 18.5,39.5C 20.3413,40.2304 22.1746,40.8971 24,41.5C 24.2536,45.9031 24.087,50.0697 23.5,54C 24.0944,54.4643 24.7611,54.631 25.5,54.5C 25.4226,55.7498 24.756,56.5831 23.5,57C 25.8808,57.2233 27.5475,58.39 28.5,60.5C 24.8333,60.5 21.1667,60.5 17.5,60.5C 17.5,59.5 17.5,58.5 17.5,57.5C 18.8333,57.5 20.1667,57.5 21.5,57.5C 21.5,55.1667 21.5,52.8333 21.5,50.5C 17.5,49.8333 17.5,49.1667 21.5,48.5C 21.5,46.1667 21.5,43.8333 21.5,41.5C 20.1667,41.5 18.8333,41.5 17.5,41.5C 17.5,39.8333 17.5,38.1667 17.5,36.5 Z"/></g>
<g><path style="opacity:1" fill="#335767" d="M 86.5,57.5 C 88.5952,58.412 90.5952,59.5787 92.5,61C 93.7932,61.49 95.1266,61.6567 96.5,61.5C 96.5,61.8333 96.5,62.1667 96.5,62.5C 95.1667,62.5 93.8333,62.5 92.5,62.5C 92.5,63.5 92.5,64.5 92.5,65.5C 91.6618,65.1583 91.3284,64.4916 91.5,63.5C 91.5,63.1667 91.5,62.8333 91.5,62.5C 89.5273,61.194 87.8606,59.5273 86.5,57.5 Z"/></g>
<g><path style="opacity:1" fill="#0b0b09" d="M 13.5,60.5 C 14.8333,60.5 16.1667,60.5 17.5,60.5C 21.1667,60.5 24.8333,60.5 28.5,60.5C 29.3138,62.631 29.8138,64.9644 30,67.5C 31.0437,66.3774 31.7104,65.0441 32,63.5C 32.4169,64.756 33.2502,65.4226 34.5,65.5C 36.3435,67.2789 37.0102,69.6122 36.5,72.5C 30.1322,71.6495 23.7989,71.6495 17.5,72.5C 17.5,72.1667 17.5,71.8333 17.5,71.5C 16.1336,69.6495 14.467,69.3162 12.5,70.5C 11.5159,67.5719 11.1826,64.5719 11.5,61.5C 11.8417,60.6618 12.5084,60.3284 13.5,60.5 Z"/></g>
<g><path style="opacity:1" fill="#876c43" d="M 54.5,57.5 C 54.5,58.5 54.5,59.5 54.5,60.5C 55.5,60.5 56.5,60.5 57.5,60.5C 57.5,59.5 57.5,58.5 57.5,57.5C 58.5862,57.62 59.2528,58.2867 59.5,59.5C 59.0576,60.7387 58.3909,61.7387 57.5,62.5C 56.1667,62.5 54.8333,62.5 53.5,62.5C 53.2155,60.5853 53.5489,58.9187 54.5,57.5 Z"/></g>
<g><path style="opacity:1" fill="#aeae1d" d="M 54.5,57.5 C 55.5,57.5 56.5,57.5 57.5,57.5C 57.5,58.5 57.5,59.5 57.5,60.5C 56.5,60.5 55.5,60.5 54.5,60.5C 54.5,59.5 54.5,58.5 54.5,57.5 Z"/></g>
<g><path style="opacity:1" fill="#ada9a1" d="M 91.5,62.5 C 91.5,62.8333 91.5,63.1667 91.5,63.5C 89.5,63.5 87.5,63.5 85.5,63.5C 85.5,66.1667 85.5,68.8333 85.5,71.5C 85.1667,71.5 84.8333,71.5 84.5,71.5C 84.3354,68.4816 84.502,65.4816 85,62.5C 87.0811,61.6669 89.2478,61.6669 91.5,62.5 Z"/></g>
<g><path style="opacity:1" fill="#eea489" d="M 39.5,62.5 C 41.7849,63.5463 44.1183,63.5463 46.5,62.5C 47.4137,65.728 47.7471,69.0613 47.5,72.5C 47.5,72.8333 47.5,73.1667 47.5,73.5C 43.9345,77.2104 40.6012,77.2104 37.5,73.5C 37.5,70.1667 37.5,66.8333 37.5,63.5C 38.1667,63.1667 38.8333,62.8333 39.5,62.5 Z"/></g>
<g><path style="opacity:1" fill="#e5e5e5" d="M 91.5,63.5 C 91.3284,64.4916 91.6618,65.1583 92.5,65.5C 93.6599,72.0207 91.3265,74.0207 85.5,71.5C 85.5,68.8333 85.5,66.1667 85.5,63.5C 87.5,63.5 89.5,63.5 91.5,63.5 Z"/></g>
<g><path style="opacity:1" fill="#d2d1d0" d="M 81.5,71.5 C 78.9455,72.388 76.2788,72.7214 73.5,72.5C 73.5,69.1667 73.5,65.8333 73.5,62.5C 75.8333,62.5 78.1667,62.5 80.5,62.5C 81.1587,65.4552 81.4921,68.4552 81.5,71.5 Z"/></g>
<g><path style="opacity:1" fill="#e0e3e4" d="M 62.5,62.5 C 64.8333,62.5 67.1667,62.5 69.5,62.5C 69.5,65.5 69.5,68.5 69.5,71.5C 67.8212,71.2852 66.8212,71.9519 66.5,73.5C 66.1667,77.5 65.8333,77.5 65.5,73.5C 64.791,72.596 63.791,72.2627 62.5,72.5C 62.5,69.1667 62.5,65.8333 62.5,62.5 Z"/></g>
<g><path style="opacity:1" fill="#1b1812" d="M 96.5,62.5 C 96.8342,65.188 96.1675,67.5214 94.5,69.5C 93.8333,68.1667 93.1667,66.8333 92.5,65.5C 92.5,64.5 92.5,63.5 92.5,62.5C 93.8333,62.5 95.1667,62.5 96.5,62.5 Z"/></g>
<g><path style="opacity:1" fill="#4d606f" d="M 11.5,61.5 C 11.1826,64.5719 11.5159,67.5719 12.5,70.5C 14.467,69.3162 16.1336,69.6495 17.5,71.5C 15.1667,71.5 12.8333,71.5 10.5,71.5C 10.1872,67.9581 10.5206,64.6248 11.5,61.5 Z"/></g>
<g><path style="opacity:1" fill="#706558" d="M 37.5,63.5 C 37.5,66.8333 37.5,70.1667 37.5,73.5C 30.6457,73.824 23.979,73.4907 17.5,72.5C 23.7989,71.6495 30.1322,71.6495 36.5,72.5C 37.0102,69.6122 36.3435,67.2789 34.5,65.5C 34.8212,63.9519 35.8212,63.2852 37.5,63.5 Z"/></g>
<g><path style="opacity:1" fill="#6d6b64" d="M 51.5,62.5 C 51.5,65.5 51.5,68.5 51.5,71.5C 53.8333,70.1667 56.1667,70.1667 58.5,71.5C 59.209,72.404 60.209,72.7373 61.5,72.5C 61.1872,68.9581 61.5206,65.6248 62.5,62.5C 62.5,65.8333 62.5,69.1667 62.5,72.5C 63.791,72.2627 64.791,72.596 65.5,73.5C 59.5,73.5 53.5,73.5 47.5,73.5C 47.5,73.1667 47.5,72.8333 47.5,72.5C 48.5,72.5 49.5,72.5 50.5,72.5C 50.1872,68.9581 50.5206,65.6248 51.5,62.5 Z"/></g>
<g><path style="opacity:1" fill="#e2e2e2" d="M 51.5,62.5 C 52.1667,62.5 52.8333,62.5 53.5,62.5C 54.8333,62.5 56.1667,62.5 57.5,62.5C 58.4767,65.2869 58.81,68.2869 58.5,71.5C 56.1667,70.1667 53.8333,70.1667 51.5,71.5C 51.5,68.5 51.5,65.5 51.5,62.5 Z"/></g>
<g><path style="opacity:1" fill="#6b6963" d="M 92.5,65.5 C 93.1667,66.8333 93.8333,68.1667 94.5,69.5C 93.7659,70.7079 93.4326,72.0413 93.5,73.5C 84.5,73.5 75.5,73.5 66.5,73.5C 66.8212,71.9519 67.8212,71.2852 69.5,71.5C 70.5676,72.4345 71.901,72.7678 73.5,72.5C 76.2788,72.7214 78.9455,72.388 81.5,71.5C 82.5,72.8333 83.5,72.8333 84.5,71.5C 84.8333,71.5 85.1667,71.5 85.5,71.5C 91.3265,74.0207 93.6599,72.0207 92.5,65.5 Z"/></g>
</svg>
