<?xml version="1.0" encoding="UTF-8"?>
<!DOCTYPE svg PUBLIC "-//W3C//DTD SVG 1.1//EN" "http://www.w3.org/Graphics/SVG/1.1/DTD/svg11.dtd">
<svg xmlns="http://www.w3.org/2000/svg" version="1.1" width="42px" height="42px" style="shape-rendering:geometricPrecision; text-rendering:geometricPrecision; image-rendering:optimizeQuality; fill-rule:evenodd; clip-rule:evenodd" xmlns:xlink="http://www.w3.org/1999/xlink">
<g><path style="opacity:1" fill="#fdfdfe" d="M -0.5,-0.5 C 5.16667,-0.5 10.8333,-0.5 16.5,-0.5C 16.5,-0.166667 16.5,0.166667 16.5,0.5C 10.5165,1.65258 7.0165,5.31924 6,11.5C 4.66357,20.1566 5.66357,28.4899 9,36.5C 10.883,39.0244 13.383,40.3577 16.5,40.5C 16.5,40.8333 16.5,41.1667 16.5,41.5C 10.8333,41.5 5.16667,41.5 -0.5,41.5C -0.5,27.5 -0.5,13.5 -0.5,-0.5 Z"/></g>
<g><path style="opacity:1" fill="#f6fafe" d="M 16.5,0.5 C 16.5,0.166667 16.5,-0.166667 16.5,-0.5C 24.8333,-0.5 33.1667,-0.5 41.5,-0.5C 41.5,13.5 41.5,27.5 41.5,41.5C 33.1667,41.5 24.8333,41.5 16.5,41.5C 16.5,41.1667 16.5,40.8333 16.5,40.5C 30.9054,41.7579 37.2388,35.0913 35.5,20.5C 37.2535,5.95335 30.9202,-0.713312 16.5,0.5 Z"/></g>
<g><path style="opacity:1" fill="#1686fc" d="M 16.5,0.5 C 30.9202,-0.713312 37.2535,5.95335 35.5,20.5C 37.2388,35.0913 30.9054,41.7579 16.5,40.5C 13.383,40.3577 10.883,39.0244 9,36.5C 5.66357,28.4899 4.66357,20.1566 6,11.5C 7.0165,5.31924 10.5165,1.65258 16.5,0.5 Z"/></g>
<g><path style="opacity:1" fill="#f4f9fe" d="M 19.5,3.5 C 23.1456,6.47895 26.479,9.81228 29.5,13.5C 27.5,15.8333 25.5,18.1667 23.5,20.5C 25.5,22.8333 27.5,25.1667 29.5,27.5C 26.516,30.9846 23.3493,34.318 20,37.5C 19.6667,33.1667 19.3333,28.8333 19,24.5C 17.3163,26.3513 15.4829,28.018 13.5,29.5C 12.6919,29.1924 12.0253,28.6924 11.5,28C 14.0168,25.6506 16.3501,23.1506 18.5,20.5C 16.3501,17.8494 14.0168,15.3494 11.5,13C 12.0253,12.3076 12.6919,11.8076 13.5,11.5C 15.4829,12.982 17.3163,14.6487 19,16.5C 19.499,12.1794 19.6657,7.84611 19.5,3.5 Z"/></g>
<g><path style="opacity:1" fill="#3593fc" d="M 22.5,10.5 C 26.1844,12.2033 26.351,14.2033 23,16.5C 22.5045,14.5273 22.3379,12.5273 22.5,10.5 Z"/></g>
<g><path style="opacity:1" fill="#3090fc" d="M 22.5,25.5 C 26.3404,26.5678 26.5071,28.2345 23,30.5C 22.5065,28.8659 22.3398,27.1992 22.5,25.5 Z"/></g>
</svg>
